<svg xmlns="http://www.w3.org/2000/svg" viewBox="0 0 5086 996" role="img" aria-label="KillerScan">

<g transform="translate(40,944) scale(1,-1)">
<g fill="#000000" transform="translate(-26,0)"><path d="M37 517V48Q37 43 41.0 32.0Q45 21 47 19Q48 17 59.5 13.5Q71 10 76 9Q77 9 83.0 8.5Q89 8 92 8Q94 8 99.5 8.5Q105 9 105 9Q107 10 118.5 17.5Q130 25 135 29Q139 32 146.0 39.0Q153 46 154 48Q155 51 157.0 57.5Q159 64 160.5 72.0Q162 80 163.0 87.0Q164 94 164 97Q164 98 162.5 102.5Q161 107 159.0 111.5Q157 116 155.5 120.5Q154 125 154 126Q154 127 154 132Q154 138 153.5 145.0Q153 152 153 159Q153 166 153 170Q153 177 153.5 190.5Q154 204 154 205Q155 207 158.5 212.5Q162 218 166.5 224.0Q171 230 175.5 236.0Q180 242 183 244Q184 244 187.5 244.5Q191 245 193 245Q195 245 198.5 244.5Q202 244 203 244L262 185Q263 183 266.5 175.0Q270 167 271 165Q273 161 277.5 153.5Q282 146 287.0 138.5Q292 131 296.0 124.5Q300 118 301 117Q302 115 306.0 111.5Q310 108 311 107Q313 104 320.0 92.5Q327 81 335.0 67.5Q343 54 350.0 43.0Q357 32 359 29Q362 26 373.0 18.5Q384 11 389 9Q390 9 396.0 8.5Q402 8 404 8Q407 8 412.5 8.5Q418 9 418 9Q420 10 426.0 15.5Q432 21 438.0 27.0Q444 33 449.5 39.0Q455 45 457 48Q457 48 457.5 51.5Q458 55 458 57Q458 59 457.5 63.0Q457 67 457 68Q456 72 452.5 83.0Q449 94 447 97Q447 98 444.0 102.5Q441 107 438.0 111.5Q435 116 432.0 120.5Q429 125 428 126Q427 128 423.5 136.0Q420 144 418.0 146.0Q416 148 409.0 155.0Q402 162 393.5 170.0Q385 178 377.5 185.5Q370 193 369 195Q368 196 365.0 203.5Q362 211 359.0 219.0Q356 227 353.5 234.5Q351 242 350 244Q349 245 345.5 250.0Q342 255 337.0 261.5Q332 268 327.5 274.0Q323 280 320 283Q319 285 310.5 292.5Q302 300 301 302Q299 305 295.0 313.0Q291 321 286.5 330.0Q282 339 277.5 348.0Q273 357 271 361V366V371Q273 376 276.5 387.0Q280 398 281 400Q283 404 288.5 414.5Q294 425 300.5 436.0Q307 447 312.5 456.5Q318 466 320.0 469.0Q322 472 331.0 483.5Q340 495 349.5 508.0Q359 521 368.0 532.5Q377 544 379.0 547.0Q381 550 385.5 557.0Q390 564 394.5 571.5Q399 579 403.0 586.0Q407 593 408 596Q410 598 413.5 609.0Q417 620 418 625V630V635Q417 637 413.5 640.5Q410 644 408 645H384H359Q358 644 354.5 640.5Q351 637 350.0 635.0Q349 633 346.0 627.5Q343 622 340.0 615.0Q337 608 334.0 602.5Q331 597 330 596Q328 593 320.0 582.0Q312 571 302.5 558.5Q293 546 284.0 534.5Q275 523 271 517Q270 515 262.0 507.5Q254 500 252 498Q251 497 248.5 492.5Q246 488 242.5 483.0Q239 478 236.0 474.0Q233 470 232.0 469.0Q231 468 227.0 465.0Q223 462 217.5 459.0Q212 456 208.0 453.0Q204 450 203 449Q201 447 197.0 440.0Q193 433 188.0 425.0Q183 417 179.0 409.5Q175 402 174 400Q172 397 164.0 390.0Q156 383 154 381Q154 380 152 380Q150 380 149 380Q145 380 144 381Q142 383 139.0 390.0Q136 397 135 400Q134 402 134.5 410.0Q135 418 135 420Q135 422 133.0 432.0Q131 442 129.5 453.5Q128 465 126.5 475.0Q125 485 125 488Q125 491 125 501Q125 511 125 522Q125 534 125 544Q125 554 125 557Q125 560 123.5 568.0Q122 576 120.5 585.5Q119 595 117.5 603.5Q116 612 115 615Q114 617 110.5 625.0Q107 633 105 635Q102 639 95.0 646.0Q88 653 86 654Q85 655 79 655Q74 655 72 655Q69 655 63 655Q57 655 56 654Q55 654 51.5 650.5Q48 647 47 645Q45 642 41.5 635.5Q38 629 35.0 623.0Q32 617 29.5 611.5Q27 606 27 605Q27 605 26.5 596.5Q26 588 26 583Q26 578 26.5 568.0Q27 558 27 557Q27 554 28.5 548.5Q30 543 31.5 536.5Q33 530 34.5 524.5Q36 519 37 517Z" transform="translate(0,0)"/><path d="M11 63Q11 62 11.5 60.0Q12 58 12 58Q16 53 27.0 42.0Q38 31 41 29Q46 27 60.5 23.0Q75 19 80 19Q86 19 102 19Q118 19 136.0 18.5Q154 18 170 18Q187 18 193 18Q204 18 222 18Q240 18 258.0 18.5Q276 19 289 19Q303 19 305 19Q307 19 315.0 20.0Q323 21 332.5 22.5Q342 24 350.5 26.0Q359 28 364 29Q368 30 379.5 33.5Q391 37 393 39Q395 40 399.0 43.5Q403 47 403 48Q404 50 404.5 58.0Q405 66 405 71Q405 74 404.5 80.5Q404 87 403 87Q402 88 396.5 90.0Q391 92 384.0 93.5Q377 95 371.0 96.0Q365 97 364 97Q362 98 354.5 102.5Q347 107 345 107Q343 107 334 107Q325 107 315 107Q306 107 297 107Q288 107 286 107Q284 107 280.5 111.0Q277 115 276 117Q274 122 270.5 137.0Q267 152 266 156Q266 160 266 179Q266 198 266 219Q266 241 266 259Q266 278 266 283Q266 286 264.5 297.5Q263 309 261.5 322.5Q260 336 258.5 347.0Q257 358 257 361Q257 364 257 374Q257 384 257 395Q257 407 257 417Q257 427 257 430Q256 432 252.5 439.0Q249 446 247 449Q245 451 241.5 454.5Q238 458 237 459Q236 459 231.5 460.5Q227 462 222.0 464.0Q217 466 213.0 467.5Q209 469 208 469Q206 470 198.0 474.5Q190 479 188 479Q187 479 172.0 475.0Q157 471 149 469Q147 468 134.5 464.0Q122 460 120 459Q117 458 111.5 456.5Q106 455 99.5 453.5Q93 452 87.5 450.5Q82 449 80 449Q80 449 76.0 449.5Q72 450 71 449Q69 448 65.5 445.0Q62 442 61 440Q61 439 60.5 437.5Q60 436 60 435Q60 433 60.5 431.5Q61 430 61 430Q63 426 70.5 418.5Q78 411 80.0 410.0Q82 409 89.5 407.5Q97 406 105.0 404.5Q113 403 120.0 402.0Q127 401 129 400Q133 399 139.5 397.5Q146 396 152.0 394.5Q158 393 163.0 392.0Q168 391 168 391Q170 390 173.5 386.5Q177 383 178 381Q178 377 178.5 364.0Q179 351 179 347Q179 340 178.5 327.0Q178 314 178 312Q178 310 176.5 303.0Q175 296 173.5 287.5Q172 279 170.0 272.0Q168 265 168 264Q168 257 167.5 240.5Q167 224 167 205Q167 186 167.5 169.5Q168 153 168 146Q168 144 164.5 136.5Q161 129 159 127Q155 123 143.5 115.5Q132 108 129 107Q127 107 118 107Q110 107 100 107Q90 107 81 107Q73 107 71 107Q69 107 62.0 103.0Q55 99 51.0 97.0Q47 95 36.0 87.5Q25 80 22 78Q20 76 16.5 72.5Q13 69 12 68Q12 68 11.5 66.0Q11 64 11 63ZM158 612Q158 609 158 603Q158 597 159 596Q159 593 162.5 581.5Q166 570 168 567Q169 565 172.5 561.5Q176 558 178 557Q181 555 188.5 551.0Q196 547 198 547Q199 547 209.0 546.5Q219 546 224 546Q229 546 237.5 546.5Q246 547 247 547Q249 548 256.5 555.5Q264 563 266 567Q267 568 268.5 573.0Q270 578 271.5 584.0Q273 590 274.5 596.5Q276 603 276 606Q276 607 276.5 611.0Q277 615 277 617Q277 619 276.5 622.0Q276 625 276 625Q274 628 270.0 632.5Q266 637 261.5 642.0Q257 647 252.5 650.5Q248 654 247 655Q246 655 238.0 655.5Q230 656 225 656Q220 656 209.5 655.5Q199 655 198 655Q196 654 188.5 650.5Q181 647 178 645Q174 642 167.0 634.5Q160 627 159 625Q158 625 158 620Q158 615 158 612Z" transform="translate(478,0)"/><path d="M55 10Q66 9 93.5 7.5Q121 6 152.5 4.5Q184 3 212.0 1.5Q240 0 251 0H304H358Q360 1 364.5 5.5Q369 10 373.5 14.5Q378 19 382.0 23.0Q386 27 387 29Q390 33 394.0 40.0Q398 47 397 49Q396 53 388.5 60.5Q381 68 378 68L260 88V586Q260 588 253.0 595.5Q246 603 241 606Q239 608 231.0 611.5Q223 615 221 616Q218 616 207.0 617.5Q196 619 181.5 620.5Q167 622 153.5 623.5Q140 625 133 626H116H104Q102 625 98.0 621.5Q94 618 89.5 613.0Q85 608 81.0 603.5Q77 599 75 596Q74 596 74 591Q74 587 75 586Q77 584 84.0 576.5Q91 569 94 567Q96 565 104.0 561.5Q112 558 114 557Q116 557 128.5 557.5Q141 558 143 557Q144 557 149.5 554.5Q155 552 161.0 549.0Q167 546 173.0 542.5Q179 539 182 538Q184 537 187.5 533.5Q191 530 192 528V489V450Q192 443 190.5 425.0Q189 407 187.5 386.5Q186 366 184.5 348.0Q183 330 182 323Q182 321 180.5 312.0Q179 303 177.5 293.5Q176 284 174.0 275.0Q172 266 172 264Q172 260 172 245Q172 231 172 214Q172 198 172 184Q172 170 172 166Q172 163 171.0 154.5Q170 146 168.5 136.5Q167 127 165.5 119.0Q164 111 163 108Q159 106 148.0 102.5Q137 99 133 98Q127 96 112.0 93.5Q97 91 79.5 88.0Q62 85 47.0 82.0Q32 79 26 78Q24 78 20.5 74.0Q17 70 16 68Q16 68 15.5 62.0Q15 56 15 53Q15 50 15.5 45.0Q16 40 16 39Q17 37 24.5 29.5Q32 22 36 20Q38 18 45.5 14.5Q53 11 55 10Z" transform="translate(895,0)"/><path d="M55 10Q66 9 93.5 7.5Q121 6 152.5 4.5Q184 3 212.0 1.5Q240 0 251 0H304H358Q360 1 364.5 5.5Q369 10 373.5 14.5Q378 19 382.0 23.0Q386 27 387 29Q390 33 394.0 40.0Q398 47 397 49Q396 53 388.5 60.5Q381 68 378 68L260 88V586Q260 588 253.0 595.5Q246 603 241 606Q239 608 231.0 611.5Q223 615 221 616Q218 616 207.0 617.5Q196 619 181.5 620.5Q167 622 153.5 623.5Q140 625 133 626H116H104Q102 625 98.0 621.5Q94 618 89.5 613.0Q85 608 81.0 603.5Q77 599 75 596Q74 596 74 591Q74 587 75 586Q77 584 84.0 576.5Q91 569 94 567Q96 565 104.0 561.5Q112 558 114 557Q116 557 128.5 557.5Q141 558 143 557Q144 557 149.5 554.5Q155 552 161.0 549.0Q167 546 173.0 542.5Q179 539 182 538Q184 537 187.5 533.5Q191 530 192 528V489V450Q192 443 190.5 425.0Q189 407 187.5 386.5Q186 366 184.5 348.0Q183 330 182 323Q182 321 180.5 312.0Q179 303 177.5 293.5Q176 284 174.0 275.0Q172 266 172 264Q172 260 172 245Q172 231 172 214Q172 198 172 184Q172 170 172 166Q172 163 171.0 154.5Q170 146 168.5 136.5Q167 127 165.5 119.0Q164 111 163 108Q159 106 148.0 102.5Q137 99 133 98Q127 96 112.0 93.5Q97 91 79.5 88.0Q62 85 47.0 82.0Q32 79 26 78Q24 78 20.5 74.0Q17 70 16 68Q16 68 15.5 62.0Q15 56 15 53Q15 50 15.5 45.0Q16 40 16 39Q17 37 24.5 29.5Q32 22 36 20Q38 18 45.5 14.5Q53 11 55 10Z" transform="translate(1303,0)"/><path d="M24 241Q24 235 24 226Q24 217 24.5 208.0Q25 199 25 192Q25 186 25 186Q25 181 27.5 169.5Q30 158 33.5 145.5Q37 133 40.0 122.0Q43 111 45 107Q46 105 49.5 99.5Q53 94 57.5 88.0Q62 82 66.5 76.5Q71 71 74 68Q75 67 78.5 64.5Q82 62 86.5 59.0Q91 56 95.5 53.0Q100 50 103 49Q108 46 122.5 38.5Q137 31 142 29Q146 29 155 29Q164 29 174.0 28.5Q184 28 193 28Q202 28 206 28Q212 28 222 28Q233 28 243.0 28.5Q253 29 261 29Q269 29 270 29Q271 29 277.0 30.0Q283 31 290.5 32.5Q298 34 306.0 36.0Q314 38 319 39Q323 40 329.5 41.5Q336 43 342.0 44.5Q348 46 353.0 47.5Q358 49 358 49Q360 50 367.0 56.5Q374 63 382.0 70.5Q390 78 397.0 85.5Q404 93 407 97Q408 98 410.5 103.5Q413 109 416.0 115.0Q419 121 422.0 127.5Q425 134 426 137Q426 137 426.5 139.0Q427 141 427 142Q427 143 426.5 144.5Q426 146 426 146Q424 149 419.5 153.5Q415 158 410.5 163.0Q406 168 402.0 171.5Q398 175 397 176Q396 176 390.5 176.5Q385 177 383 177Q380 177 374.0 176.5Q368 176 367 176Q365 175 357.5 166.5Q350 158 348 156Q342 152 329.5 145.5Q317 139 304.5 133.0Q292 127 282.0 122.0Q272 117 270 117Q269 117 263.5 116.5Q258 116 250.5 115.5Q243 115 235 115Q227 115 223 115Q218 115 210 115Q202 115 193.5 115.5Q185 116 179.0 116.5Q173 117 172 117Q170 117 165.0 119.5Q160 122 154.0 125.0Q148 128 142.0 131.5Q136 135 133 137Q131 139 123.0 146.0Q115 153 113 156Q111 160 107.0 167.0Q103 174 103 176Q104 178 111.0 189.0Q118 200 123 205Q126 209 133.5 216.5Q141 224 142 225Q143 225 150.0 225.5Q157 226 161 226Q165 226 172.5 225.5Q180 225 182 225Q184 224 191.5 219.5Q199 215 201 215Q202 215 205.5 214.5Q209 214 211 214Q213 214 216.5 214.5Q220 215 221 215Q222 215 225.5 219.5Q229 224 230 225Q233 226 241.5 227.5Q250 229 259.5 230.5Q269 232 277.5 233.0Q286 234 289 234Q295 234 308.5 234.5Q322 235 338 235Q354 235 367.5 234.5Q381 234 387 234Q390 235 396.5 240.0Q403 245 409.0 251.5Q415 258 420.0 264.5Q425 271 426 274Q427 274 427 287Q427 300 427 308Q427 312 427 319Q427 326 427 333Q427 340 426.5 345.5Q426 351 426 352Q426 357 422.0 371.5Q418 386 416 391Q415 394 407.5 405.0Q400 416 397 420Q395 422 390.5 426.5Q386 431 381.5 436.0Q377 441 372.5 445.0Q368 449 367 450Q365 452 358.0 456.0Q351 460 343.5 464.5Q336 469 329.0 473.0Q322 477 319 479Q315 479 305 479Q295 479 284.0 479.5Q273 480 263 480Q254 480 250 480Q243 480 232 480Q221 480 210.0 479.5Q199 479 191 479Q183 479 182 479Q180 479 173.0 478.0Q166 477 158.5 475.5Q151 474 143.5 472.0Q136 470 133.0 469.0Q130 468 122.5 464.5Q115 461 113 460Q109 457 101.5 449.5Q94 442 86.5 434.5Q79 427 72.5 420.0Q66 413 64 411Q63 409 60.0 403.5Q57 398 54.0 391.0Q51 384 48.5 378.0Q46 372 45.0 371.0Q44 370 39.5 366.5Q35 363 35 362Q34 359 32.5 350.5Q31 342 29.5 332.5Q28 323 26.5 314.5Q25 306 25 303Q25 302 25 294Q25 286 24.5 276.5Q24 267 24 257Q24 247 24 241ZM112 357Q112 360 112.5 365.5Q113 371 113 371Q113 373 117.0 380.5Q121 388 123 391Q124 393 127.5 396.5Q131 400 133 401Q138 402 150.5 403.5Q163 405 177.0 406.5Q191 408 203.5 409.5Q216 411 221 411H246H270Q274 411 282.5 409.5Q291 408 300.5 406.5Q310 405 318.0 403.5Q326 402 328 401Q329 401 332.5 397.0Q336 393 338 391Q340 388 343.0 383.5Q346 379 349.5 374.5Q353 370 355.5 366.0Q358 362 358 362Q358 361 358.5 355.5Q359 350 359 348Q359 345 358.5 339.0Q358 333 358 332Q357 330 353.5 322.5Q350 315 348 313Q343 312 332.0 310.0Q321 308 309.0 306.5Q297 305 285.5 304.0Q274 303 270 303Q265 303 248.0 304.5Q231 306 211.0 307.5Q191 309 173.5 311.0Q156 313 152 313Q151 313 146.5 312.5Q142 312 137 312Q132 312 128 312Q124 312 123 313Q121 314 117.5 325.5Q114 337 113 342Q113 343 112.5 348.5Q112 354 112 357Z" transform="translate(1711,0)"/><path d="M21 50Q21 45 21.5 38.0Q22 31 22 30Q22 29 26.0 25.5Q30 22 32 20Q35 18 39.5 15.0Q44 12 48.5 9.0Q53 6 57.0 3.5Q61 1 61 1Q63 1 70 1Q77 1 85 1Q94 1 101 1Q108 1 110 1Q114 1 131.5 -0.5Q149 -2 169.0 -4.0Q189 -6 206.0 -7.5Q223 -9 227 -9H232H237Q242 -8 251.5 -6.5Q261 -5 270.5 -3.5Q280 -2 287.0 -0.5Q294 1 296 1Q298 1 305.5 5.0Q313 9 315 11Q317 12 321.0 15.5Q325 19 325 20Q325 21 325.5 29.0Q326 37 326 41Q326 45 325.5 52.0Q325 59 325 59Q324 61 317.0 68.5Q310 76 305 79Q303 81 295.5 84.5Q288 88 286 89Q284 89 275.0 88.5Q266 88 256 88Q247 88 238 88Q229 88 227 89Q222 90 215.0 97.5Q208 105 208 108V323Q208 326 211.5 333.5Q215 341 219.5 348.5Q224 356 229.0 363.0Q234 370 237 372Q237 372 244.0 373.5Q251 375 260.5 376.5Q270 378 280.0 379.5Q290 381 296 382H301H305Q309 381 315.5 379.5Q322 378 328.0 376.5Q334 375 339.0 373.5Q344 372 344 372Q345 371 349.5 367.0Q354 363 359.0 357.5Q364 352 368.5 348.0Q373 344 374.0 343.0Q375 342 382.5 338.5Q390 335 393 333Q399 331 410.5 327.0Q422 323 423 323Q426 324 433.0 331.5Q440 339 442 343Q443 343 443 348Q443 354 443 357Q443 360 443 365Q443 371 442 372Q440 377 432.5 388.0Q425 399 423 401Q421 402 415.5 403.5Q410 405 403.0 406.5Q396 408 390.5 409.5Q385 411 384 411Q382 412 378.5 416.0Q375 420 374 421Q369 423 357.5 427.0Q346 431 344 431H178Q176 429 168.5 425.0Q161 421 159 421Q157 421 149.0 426.0Q141 431 139 431Q138 431 125.0 431.5Q112 432 105 432Q101 432 88.0 431.5Q75 431 71 431Q68 429 60.5 421.5Q53 414 51 411Q51 411 50.5 409.0Q50 407 50 406Q50 405 50.5 403.5Q51 402 51 401Q53 399 60.5 395.5Q68 392 71 392Q72 392 78 392Q84 392 90 392Q97 392 102 392Q108 392 110 392Q113 390 120.5 383.0Q128 376 129 372Q130 367 130 352Q130 338 130 333Q130 325 130 310Q130 296 129 294Q129 291 127.5 279.5Q126 268 124.5 255.0Q123 242 121.5 230.5Q120 219 120 216Q120 212 121.5 197.5Q123 183 124.5 166.5Q126 150 127.5 136.0Q129 122 129 118Q130 117 130 110Q130 104 130 102Q130 99 130 94Q130 89 129 89Q129 87 125.5 83.5Q122 80 120 79H115H110Q108 79 101.0 80.5Q94 82 85.5 84.0Q77 86 70.0 87.5Q63 89 61 89H56H51Q49 88 41.5 84.5Q34 81 32.0 79.0Q30 77 26.0 73.5Q22 70 22 69Q22 68 21.5 61.0Q21 54 21 50Z" transform="translate(2162,0)"/></g>
<g transform="translate(13,-13)"><g fill="#633807" stroke="#633807" stroke-width="14" stroke-linejoin="round" transform="translate(2612.6,0) scale(1.3)"><path d="M20 112Q20 107 20 90Q21 74 22 69Q22 66 24 60Q25 53 26 46Q28 40 30 35Q31 30 32 29Q34 26 40 20Q45 13 52 7Q58 1 64 -4Q69 -9 71 -10Q74 -11 87 -14Q100 -17 116 -20Q131 -23 146 -26Q161 -28 169 -29Q172 -29 185 -29Q198 -29 213 -29Q228 -29 241 -29Q254 -29 257 -29Q258 -29 262 -30Q267 -32 272 -34Q276 -36 280 -38Q285 -39 286 -39Q289 -39 297 -36Q305 -34 314 -30Q324 -27 332 -24Q341 -21 345 -19Q346 -19 351 -15Q356 -11 362 -6Q368 -2 374 2Q381 7 384 10Q387 12 394 20Q402 27 404 29Q406 31 410 39Q413 47 413 49Q414 52 416 60Q418 67 420 75Q421 83 422 90Q423 96 423 98Q423 99 423 107Q423 115 424 125Q424 135 424 145Q424 156 424 162Q424 168 424 178Q424 189 424 199Q423 209 423 216Q423 224 423 225Q423 228 422 234Q421 240 420 246Q418 252 416 257Q414 262 413 264Q413 265 409 270Q405 274 400 278Q396 283 392 288Q387 292 384 294Q382 295 374 298Q366 302 364 303Q362 305 354 313Q347 321 345 323Q343 325 336 328Q328 332 325 333Q320 335 306 338Q291 342 286 343Q281 343 269 344Q257 346 243 348Q229 349 216 350Q204 352 198 352Q196 352 190 352Q185 352 178 352Q172 352 166 352Q160 352 159 352Q157 352 152 354Q146 355 140 356Q134 358 128 360Q123 361 120 362Q116 364 108 368Q101 371 100 372Q99 373 96 378Q94 384 90 391Q87 398 84 404Q82 409 81 411Q80 412 76 416Q71 420 71 421Q71 421 72 425Q73 429 74 434Q76 438 78 442Q80 447 81 450Q82 452 86 460Q90 468 90 470Q91 471 92 476Q93 480 94 485Q96 490 98 494Q99 498 100 499Q103 502 112 508Q120 515 130 521Q139 527 148 532Q156 537 159 538Q160 539 170 539Q180 539 185 539Q191 539 203 539Q216 539 218 538Q219 538 224 536Q228 535 232 534Q237 532 242 530Q246 529 247 529Q248 529 254 529Q260 529 266 529Q273 529 278 529Q284 529 286 529Q290 528 302 524Q313 521 316 519Q318 517 326 509Q333 501 335 499Q338 496 344 491Q351 486 357 482Q363 477 368 474Q373 470 374 470Q375 470 380 470Q385 469 388 469Q391 469 397 470Q403 470 404 470Q406 470 410 474Q413 478 413 480Q414 481 414 491Q415 501 415 506Q415 511 414 520Q414 528 413 529Q413 530 406 538Q398 545 394 548L364 568Q362 569 354 578Q347 586 345 587Q343 589 336 592Q329 595 325 597Q321 599 310 602Q299 606 296 607H292H286Q283 607 268 606Q254 604 238 602Q221 600 206 598Q192 597 188 597Q186 597 177 597Q169 597 159 597Q149 597 140 597Q132 597 130 597Q129 597 126 596Q122 595 117 594Q112 592 108 590Q103 588 100 587Q96 585 88 582Q81 578 81 577Q80 576 81 568Q82 560 81 558Q80 556 72 552Q63 549 61 548Q59 547 56 544Q52 540 51 538Q49 534 46 522Q42 511 42 509Q42 508 42 502Q41 495 41 487Q41 479 41 470Q41 461 41 456Q41 451 41 442Q41 433 41 424Q41 416 42 409Q42 402 42 401Q42 396 43 388Q44 379 46 370Q47 360 48 352Q50 345 51 343Q52 340 56 334Q60 329 65 322Q70 316 74 310Q79 305 81 303Q82 303 86 302Q90 300 95 298Q100 297 104 296Q109 294 110 294L130 284Q133 283 140 282Q146 280 154 278Q162 277 169 276Q176 274 179 274Q180 274 185 274Q191 274 198 274Q205 274 210 274Q216 274 218 274Q220 274 228 269Q235 264 237 264Q238 264 242 266Q247 267 252 269Q257 271 262 272Q266 274 267 274Q271 274 278 272Q286 269 294 266Q301 263 308 260Q314 256 316 255Q317 253 320 246Q324 240 327 232Q330 225 332 218Q335 210 335 206Q335 204 336 190Q336 176 336 168Q336 160 336 144Q335 129 335 127Q335 125 331 118Q327 110 325 108Q323 106 316 98Q309 90 306 88Q302 85 296 80Q289 75 283 70Q277 66 272 62Q267 59 267 59H159Q157 61 150 64Q142 68 139 69Q138 69 134 69Q130 69 125 69Q120 69 115 69Q111 69 110 69Q109 69 104 72Q99 74 93 77Q87 80 80 83Q74 86 71 88Q70 89 66 92Q61 95 56 98Q52 101 48 104Q43 107 42 108Q40 109 31 110Q22 112 20 112Z"/><path d="M471 190Q471 182 472 170Q472 157 472 156Q472 154 476 146Q480 139 484 130Q489 120 494 111Q498 102 501 98Q503 95 510 88Q518 80 521 78Q524 76 532 72Q541 67 550 62Q560 58 568 54Q576 50 579 49Q582 48 588 46Q595 44 603 42Q611 41 618 40Q625 39 628 39Q629 39 636 39Q643 39 652 38Q662 38 671 38Q681 38 687 38Q693 38 702 38Q712 38 721 38Q730 39 737 39Q745 39 746 39Q749 39 758 40Q766 42 776 44Q785 45 793 46Q801 48 804 49Q806 50 812 52Q818 55 824 58Q830 61 836 64Q841 66 843 68Q848 71 859 82Q870 94 873 98Q873 99 874 103Q876 107 878 112Q879 117 880 122Q882 126 882 127Q883 129 888 136Q892 144 892 146Q892 147 892 151Q893 155 893 157Q893 159 892 162Q892 166 892 166Q890 168 885 172Q880 176 874 180Q868 185 862 189Q856 193 853 195Q853 196 849 196Q846 196 844 196Q842 196 838 196Q834 196 834 195Q831 194 826 192Q820 189 814 186Q807 183 802 180Q796 177 794 176Q793 175 789 170Q785 166 780 161Q775 156 770 152Q766 147 765 146Q765 146 760 145Q755 144 749 142Q743 141 736 140Q730 138 726 137Q726 137 724 136Q722 136 721 136Q720 136 718 136Q717 137 716 137Q715 137 710 138Q706 140 702 142Q697 143 692 144Q688 146 687 146Q687 147 685 147Q683 147 682 147Q678 147 677 146Q676 146 672 144Q667 143 662 142Q658 140 654 138Q649 137 648 137Q645 137 638 138Q631 139 623 140Q615 142 608 144Q602 145 599 146Q598 147 596 150Q593 153 590 156Q586 160 583 163Q580 166 579 166Q579 167 575 166Q571 166 570 166Q568 168 564 171Q560 174 560 176V352Q560 352 561 356Q562 360 564 364Q565 369 567 374Q569 378 570 381Q572 385 576 392Q579 400 579 401Q582 403 593 406Q604 410 609 410Q610 410 617 410Q624 411 633 411Q642 411 651 411Q661 411 667 411Q673 411 682 411Q692 411 701 411Q711 411 718 410Q725 410 726 410Q730 410 738 409Q745 408 752 406Q760 405 766 404Q773 402 775 401Q776 400 780 396Q785 392 790 386Q795 381 799 376Q803 372 804 371Q806 369 810 366Q815 363 820 360Q825 357 829 354Q833 352 834 352Q834 351 840 351Q846 351 849 351Q851 351 856 351Q862 351 863 352Q866 354 874 361Q881 368 882 371Q883 372 883 378Q883 385 883 389Q883 394 883 401Q883 409 882 410Q882 413 878 420Q875 428 873 430Q871 432 864 438Q857 443 850 450Q842 456 834 462Q827 467 824 469Q823 470 819 470Q815 469 814 469Q812 470 806 473Q801 476 794 479Q788 482 782 485Q776 488 775 489Q772 490 760 494Q749 497 746 498Q745 498 744 498Q742 499 740 499Q739 499 738 498Q736 498 736 498Q735 498 731 494Q727 489 726 489Q726 488 722 488Q721 488 719 488Q717 488 716 489Q713 489 698 490Q684 492 668 494Q651 495 636 496Q622 498 619 498H613H609Q607 497 599 494Q591 490 589 489Q587 488 581 483Q575 478 567 472Q559 465 552 458Q544 452 540 449Q539 449 536 444Q532 440 531 440Q529 438 521 434Q513 431 511 430Q508 428 500 420Q493 412 492 410Q490 407 486 396Q482 385 482 381Q481 375 480 356Q478 336 476 312Q475 289 474 267Q472 245 472 234Q472 233 472 227Q472 222 472 215Q471 208 471 201Q471 194 471 190Z"/><path d="M936 193Q936 188 936 180Q936 173 936 166Q937 158 937 152Q937 147 937 146Q937 144 942 136Q946 128 947 126Q947 125 946 116Q946 108 947 107Q948 105 953 101Q958 97 964 92Q970 88 976 84Q983 79 986 78Q988 76 1000 72Q1013 69 1015 68Q1017 67 1025 64Q1033 60 1035 58H1211Q1213 59 1218 62Q1224 66 1230 69Q1236 72 1242 74Q1247 77 1250 78Q1251 78 1260 78Q1269 79 1274 79Q1279 79 1288 78Q1298 78 1299 78Q1300 77 1304 72Q1307 68 1309 68Q1309 68 1318 68Q1328 67 1333 67Q1338 67 1348 68Q1357 68 1357 68Q1359 68 1363 72Q1367 76 1367 78Q1367 81 1366 88Q1365 94 1364 102Q1362 110 1360 116Q1358 123 1357 126Q1357 127 1354 132Q1351 136 1348 141Q1344 146 1341 150Q1338 154 1338 156Q1337 159 1336 168Q1334 177 1332 188Q1331 199 1330 209Q1328 219 1328 224Q1328 229 1328 249Q1328 270 1328 293Q1328 316 1328 336Q1328 356 1328 361Q1328 362 1326 370Q1323 377 1320 386Q1317 395 1314 404Q1311 414 1309 420Q1307 423 1304 430Q1300 438 1299 439Q1296 443 1284 454Q1273 466 1269 469Q1267 471 1260 474Q1252 478 1250 478Q1245 479 1235 481Q1225 483 1214 484Q1203 486 1194 487Q1184 488 1181 488Q1179 488 1174 486Q1168 485 1162 484Q1155 482 1149 480Q1143 478 1142 478Q1140 478 1131 478Q1123 478 1113 478Q1103 478 1094 478Q1086 478 1084 478Q1082 478 1074 474Q1066 469 1064 469Q1049 464 1034 462Q1019 459 1005 449L986 430Q985 428 982 422Q979 417 976 411Q973 405 970 399Q967 393 966 390V385V381Q968 377 976 370Q984 363 986 361Q986 361 990 360Q994 360 996 360Q998 360 1002 360Q1005 361 1005 361Q1007 362 1014 370Q1022 377 1025 381Q1026 382 1030 390Q1033 399 1035 400Q1038 404 1049 416Q1060 427 1064 430H1108H1152Q1153 430 1159 428Q1165 427 1172 426Q1180 424 1188 422Q1196 421 1201 420Q1206 419 1216 416Q1226 414 1232 412Q1239 410 1240 410Q1242 408 1245 403Q1248 398 1252 392Q1255 386 1258 380Q1260 374 1260 371Q1260 368 1256 356Q1252 345 1250 342Q1249 341 1242 338Q1235 334 1230 332Q1228 331 1216 327Q1203 323 1201 322Q1200 321 1196 318Q1191 315 1186 312Q1182 309 1178 306Q1173 303 1172 302H1167H1162Q1161 302 1156 304Q1152 306 1148 308Q1143 309 1138 310Q1134 312 1133 312Q1132 312 1126 312Q1121 313 1114 313Q1107 313 1100 313Q1094 313 1090 313Q1082 313 1068 313Q1055 313 1054 312Q1052 312 1044 308Q1035 303 1025 298Q1015 293 1006 288Q998 284 996 283L966 273Q965 273 962 269Q958 265 957 263Q952 258 944 246Q937 235 937 234Q937 234 937 229Q937 224 936 218Q936 211 936 204Q936 197 936 193ZM996 166Q996 168 996 174Q997 179 998 185Q1000 191 1002 196Q1004 202 1005 205Q1006 207 1010 212Q1015 216 1020 220Q1024 225 1028 229Q1033 233 1035 234Q1036 235 1041 236Q1046 238 1052 240Q1059 241 1065 242Q1071 244 1074 244Q1078 244 1095 246Q1112 247 1132 248Q1152 250 1172 252Q1191 253 1201 254H1224H1240Q1244 252 1251 244Q1258 237 1260 234Q1260 233 1260 226Q1261 219 1261 215Q1261 211 1260 204Q1260 196 1260 195Q1259 193 1256 186Q1254 180 1251 172Q1248 164 1245 156Q1242 149 1240 146Q1240 145 1236 142Q1232 138 1230 136Q1226 133 1220 128Q1213 123 1207 118Q1201 114 1196 110Q1191 107 1191 107Q1190 107 1186 108Q1181 109 1176 111Q1172 113 1168 115Q1163 117 1162 117H1152H1142Q1141 117 1136 115Q1132 113 1128 112Q1123 110 1118 108Q1114 107 1113 107Q1112 107 1106 106Q1101 106 1098 106Q1095 106 1090 106Q1084 107 1084 107Q1082 107 1074 111Q1067 115 1064 117Q1063 117 1060 122Q1056 126 1054 126Q1053 127 1049 126Q1045 126 1045 126Q1039 128 1028 132Q1017 135 1015 136Q1011 139 1004 150Q996 162 996 166Z"/><path d="M1728 115V68Q1728 66 1730 60Q1733 54 1736 46Q1739 38 1742 30Q1746 23 1748 19Q1749 17 1752 13Q1756 9 1758 9Q1759 9 1767 8Q1775 8 1779 8Q1783 8 1790 8Q1796 9 1797 9Q1798 9 1800 13Q1803 17 1806 22Q1809 26 1812 30Q1815 35 1816 38Q1818 43 1822 54Q1826 66 1826 68V322Q1826 324 1822 335Q1818 346 1816 352Q1815 354 1812 362Q1808 369 1807 371Q1803 377 1796 388Q1789 399 1787 401Q1786 402 1778 406Q1769 409 1767 410Q1765 411 1760 416Q1754 420 1748 426Q1741 431 1736 435Q1730 439 1728 440Q1727 440 1723 440Q1719 440 1714 440Q1709 440 1704 440Q1700 440 1699 440Q1697 440 1689 444Q1681 449 1679 450Q1678 450 1674 450Q1671 449 1670 450Q1668 450 1659 452Q1650 453 1640 454Q1631 456 1622 458Q1613 459 1611 459Q1609 460 1600 460Q1591 460 1586 460Q1581 460 1572 460Q1563 460 1562 459Q1560 459 1554 458Q1549 456 1542 454Q1536 453 1530 452Q1524 450 1523 450Q1522 449 1518 449Q1513 449 1513 450Q1511 450 1503 454Q1495 459 1493 459Q1492 460 1484 460Q1476 461 1471 461Q1467 461 1460 460Q1454 460 1454 459Q1454 459 1450 448Q1446 436 1444 430Q1442 422 1439 409Q1436 396 1433 384Q1430 371 1428 362Q1425 353 1425 352Q1424 345 1424 319Q1424 293 1424 264Q1425 234 1425 208Q1425 182 1425 175Q1425 173 1424 166Q1422 159 1420 151Q1418 143 1416 136Q1415 128 1415 126Q1415 125 1414 110Q1414 95 1414 87Q1414 82 1414 68Q1415 53 1415 48Q1417 46 1424 38Q1432 31 1435 29Q1437 27 1444 23Q1452 19 1454 19Q1456 19 1464 23Q1471 27 1474 29Q1476 31 1484 38Q1491 46 1493 48Q1495 53 1498 67Q1501 81 1504 96Q1508 112 1510 126Q1513 140 1513 146Q1513 152 1513 178Q1513 204 1513 234Q1513 264 1513 290Q1513 316 1513 322Q1513 326 1517 341Q1521 356 1523 361Q1524 363 1527 366Q1530 370 1532 371Q1537 373 1552 376Q1567 380 1572 381Q1573 381 1580 381Q1588 381 1596 381Q1604 381 1611 381Q1619 381 1621 381Q1625 381 1636 382Q1647 384 1660 386Q1672 387 1683 388Q1694 390 1699 391Q1701 390 1706 386Q1710 382 1714 377Q1719 372 1723 368Q1727 363 1728 361Q1729 359 1731 352Q1733 346 1734 338Q1736 330 1737 323Q1738 316 1738 313Q1738 308 1736 288Q1735 267 1734 244Q1732 221 1730 200Q1728 180 1728 175Z"/></g></g>
<g transform="translate(-11,11)"><g fill="#e5bf93" stroke="#e5bf93" stroke-width="14" stroke-linejoin="round" transform="translate(2612.6,0) scale(1.3)"><path d="M20 112Q20 107 20 90Q21 74 22 69Q22 66 24 60Q25 53 26 46Q28 40 30 35Q31 30 32 29Q34 26 40 20Q45 13 52 7Q58 1 64 -4Q69 -9 71 -10Q74 -11 87 -14Q100 -17 116 -20Q131 -23 146 -26Q161 -28 169 -29Q172 -29 185 -29Q198 -29 213 -29Q228 -29 241 -29Q254 -29 257 -29Q258 -29 262 -30Q267 -32 272 -34Q276 -36 280 -38Q285 -39 286 -39Q289 -39 297 -36Q305 -34 314 -30Q324 -27 332 -24Q341 -21 345 -19Q346 -19 351 -15Q356 -11 362 -6Q368 -2 374 2Q381 7 384 10Q387 12 394 20Q402 27 404 29Q406 31 410 39Q413 47 413 49Q414 52 416 60Q418 67 420 75Q421 83 422 90Q423 96 423 98Q423 99 423 107Q423 115 424 125Q424 135 424 145Q424 156 424 162Q424 168 424 178Q424 189 424 199Q423 209 423 216Q423 224 423 225Q423 228 422 234Q421 240 420 246Q418 252 416 257Q414 262 413 264Q413 265 409 270Q405 274 400 278Q396 283 392 288Q387 292 384 294Q382 295 374 298Q366 302 364 303Q362 305 354 313Q347 321 345 323Q343 325 336 328Q328 332 325 333Q320 335 306 338Q291 342 286 343Q281 343 269 344Q257 346 243 348Q229 349 216 350Q204 352 198 352Q196 352 190 352Q185 352 178 352Q172 352 166 352Q160 352 159 352Q157 352 152 354Q146 355 140 356Q134 358 128 360Q123 361 120 362Q116 364 108 368Q101 371 100 372Q99 373 96 378Q94 384 90 391Q87 398 84 404Q82 409 81 411Q80 412 76 416Q71 420 71 421Q71 421 72 425Q73 429 74 434Q76 438 78 442Q80 447 81 450Q82 452 86 460Q90 468 90 470Q91 471 92 476Q93 480 94 485Q96 490 98 494Q99 498 100 499Q103 502 112 508Q120 515 130 521Q139 527 148 532Q156 537 159 538Q160 539 170 539Q180 539 185 539Q191 539 203 539Q216 539 218 538Q219 538 224 536Q228 535 232 534Q237 532 242 530Q246 529 247 529Q248 529 254 529Q260 529 266 529Q273 529 278 529Q284 529 286 529Q290 528 302 524Q313 521 316 519Q318 517 326 509Q333 501 335 499Q338 496 344 491Q351 486 357 482Q363 477 368 474Q373 470 374 470Q375 470 380 470Q385 469 388 469Q391 469 397 470Q403 470 404 470Q406 470 410 474Q413 478 413 480Q414 481 414 491Q415 501 415 506Q415 511 414 520Q414 528 413 529Q413 530 406 538Q398 545 394 548L364 568Q362 569 354 578Q347 586 345 587Q343 589 336 592Q329 595 325 597Q321 599 310 602Q299 606 296 607H292H286Q283 607 268 606Q254 604 238 602Q221 600 206 598Q192 597 188 597Q186 597 177 597Q169 597 159 597Q149 597 140 597Q132 597 130 597Q129 597 126 596Q122 595 117 594Q112 592 108 590Q103 588 100 587Q96 585 88 582Q81 578 81 577Q80 576 81 568Q82 560 81 558Q80 556 72 552Q63 549 61 548Q59 547 56 544Q52 540 51 538Q49 534 46 522Q42 511 42 509Q42 508 42 502Q41 495 41 487Q41 479 41 470Q41 461 41 456Q41 451 41 442Q41 433 41 424Q41 416 42 409Q42 402 42 401Q42 396 43 388Q44 379 46 370Q47 360 48 352Q50 345 51 343Q52 340 56 334Q60 329 65 322Q70 316 74 310Q79 305 81 303Q82 303 86 302Q90 300 95 298Q100 297 104 296Q109 294 110 294L130 284Q133 283 140 282Q146 280 154 278Q162 277 169 276Q176 274 179 274Q180 274 185 274Q191 274 198 274Q205 274 210 274Q216 274 218 274Q220 274 228 269Q235 264 237 264Q238 264 242 266Q247 267 252 269Q257 271 262 272Q266 274 267 274Q271 274 278 272Q286 269 294 266Q301 263 308 260Q314 256 316 255Q317 253 320 246Q324 240 327 232Q330 225 332 218Q335 210 335 206Q335 204 336 190Q336 176 336 168Q336 160 336 144Q335 129 335 127Q335 125 331 118Q327 110 325 108Q323 106 316 98Q309 90 306 88Q302 85 296 80Q289 75 283 70Q277 66 272 62Q267 59 267 59H159Q157 61 150 64Q142 68 139 69Q138 69 134 69Q130 69 125 69Q120 69 115 69Q111 69 110 69Q109 69 104 72Q99 74 93 77Q87 80 80 83Q74 86 71 88Q70 89 66 92Q61 95 56 98Q52 101 48 104Q43 107 42 108Q40 109 31 110Q22 112 20 112Z"/><path d="M471 190Q471 182 472 170Q472 157 472 156Q472 154 476 146Q480 139 484 130Q489 120 494 111Q498 102 501 98Q503 95 510 88Q518 80 521 78Q524 76 532 72Q541 67 550 62Q560 58 568 54Q576 50 579 49Q582 48 588 46Q595 44 603 42Q611 41 618 40Q625 39 628 39Q629 39 636 39Q643 39 652 38Q662 38 671 38Q681 38 687 38Q693 38 702 38Q712 38 721 38Q730 39 737 39Q745 39 746 39Q749 39 758 40Q766 42 776 44Q785 45 793 46Q801 48 804 49Q806 50 812 52Q818 55 824 58Q830 61 836 64Q841 66 843 68Q848 71 859 82Q870 94 873 98Q873 99 874 103Q876 107 878 112Q879 117 880 122Q882 126 882 127Q883 129 888 136Q892 144 892 146Q892 147 892 151Q893 155 893 157Q893 159 892 162Q892 166 892 166Q890 168 885 172Q880 176 874 180Q868 185 862 189Q856 193 853 195Q853 196 849 196Q846 196 844 196Q842 196 838 196Q834 196 834 195Q831 194 826 192Q820 189 814 186Q807 183 802 180Q796 177 794 176Q793 175 789 170Q785 166 780 161Q775 156 770 152Q766 147 765 146Q765 146 760 145Q755 144 749 142Q743 141 736 140Q730 138 726 137Q726 137 724 136Q722 136 721 136Q720 136 718 136Q717 137 716 137Q715 137 710 138Q706 140 702 142Q697 143 692 144Q688 146 687 146Q687 147 685 147Q683 147 682 147Q678 147 677 146Q676 146 672 144Q667 143 662 142Q658 140 654 138Q649 137 648 137Q645 137 638 138Q631 139 623 140Q615 142 608 144Q602 145 599 146Q598 147 596 150Q593 153 590 156Q586 160 583 163Q580 166 579 166Q579 167 575 166Q571 166 570 166Q568 168 564 171Q560 174 560 176V352Q560 352 561 356Q562 360 564 364Q565 369 567 374Q569 378 570 381Q572 385 576 392Q579 400 579 401Q582 403 593 406Q604 410 609 410Q610 410 617 410Q624 411 633 411Q642 411 651 411Q661 411 667 411Q673 411 682 411Q692 411 701 411Q711 411 718 410Q725 410 726 410Q730 410 738 409Q745 408 752 406Q760 405 766 404Q773 402 775 401Q776 400 780 396Q785 392 790 386Q795 381 799 376Q803 372 804 371Q806 369 810 366Q815 363 820 360Q825 357 829 354Q833 352 834 352Q834 351 840 351Q846 351 849 351Q851 351 856 351Q862 351 863 352Q866 354 874 361Q881 368 882 371Q883 372 883 378Q883 385 883 389Q883 394 883 401Q883 409 882 410Q882 413 878 420Q875 428 873 430Q871 432 864 438Q857 443 850 450Q842 456 834 462Q827 467 824 469Q823 470 819 470Q815 469 814 469Q812 470 806 473Q801 476 794 479Q788 482 782 485Q776 488 775 489Q772 490 760 494Q749 497 746 498Q745 498 744 498Q742 499 740 499Q739 499 738 498Q736 498 736 498Q735 498 731 494Q727 489 726 489Q726 488 722 488Q721 488 719 488Q717 488 716 489Q713 489 698 490Q684 492 668 494Q651 495 636 496Q622 498 619 498H613H609Q607 497 599 494Q591 490 589 489Q587 488 581 483Q575 478 567 472Q559 465 552 458Q544 452 540 449Q539 449 536 444Q532 440 531 440Q529 438 521 434Q513 431 511 430Q508 428 500 420Q493 412 492 410Q490 407 486 396Q482 385 482 381Q481 375 480 356Q478 336 476 312Q475 289 474 267Q472 245 472 234Q472 233 472 227Q472 222 472 215Q471 208 471 201Q471 194 471 190Z"/><path d="M936 193Q936 188 936 180Q936 173 936 166Q937 158 937 152Q937 147 937 146Q937 144 942 136Q946 128 947 126Q947 125 946 116Q946 108 947 107Q948 105 953 101Q958 97 964 92Q970 88 976 84Q983 79 986 78Q988 76 1000 72Q1013 69 1015 68Q1017 67 1025 64Q1033 60 1035 58H1211Q1213 59 1218 62Q1224 66 1230 69Q1236 72 1242 74Q1247 77 1250 78Q1251 78 1260 78Q1269 79 1274 79Q1279 79 1288 78Q1298 78 1299 78Q1300 77 1304 72Q1307 68 1309 68Q1309 68 1318 68Q1328 67 1333 67Q1338 67 1348 68Q1357 68 1357 68Q1359 68 1363 72Q1367 76 1367 78Q1367 81 1366 88Q1365 94 1364 102Q1362 110 1360 116Q1358 123 1357 126Q1357 127 1354 132Q1351 136 1348 141Q1344 146 1341 150Q1338 154 1338 156Q1337 159 1336 168Q1334 177 1332 188Q1331 199 1330 209Q1328 219 1328 224Q1328 229 1328 249Q1328 270 1328 293Q1328 316 1328 336Q1328 356 1328 361Q1328 362 1326 370Q1323 377 1320 386Q1317 395 1314 404Q1311 414 1309 420Q1307 423 1304 430Q1300 438 1299 439Q1296 443 1284 454Q1273 466 1269 469Q1267 471 1260 474Q1252 478 1250 478Q1245 479 1235 481Q1225 483 1214 484Q1203 486 1194 487Q1184 488 1181 488Q1179 488 1174 486Q1168 485 1162 484Q1155 482 1149 480Q1143 478 1142 478Q1140 478 1131 478Q1123 478 1113 478Q1103 478 1094 478Q1086 478 1084 478Q1082 478 1074 474Q1066 469 1064 469Q1049 464 1034 462Q1019 459 1005 449L986 430Q985 428 982 422Q979 417 976 411Q973 405 970 399Q967 393 966 390V385V381Q968 377 976 370Q984 363 986 361Q986 361 990 360Q994 360 996 360Q998 360 1002 360Q1005 361 1005 361Q1007 362 1014 370Q1022 377 1025 381Q1026 382 1030 390Q1033 399 1035 400Q1038 404 1049 416Q1060 427 1064 430H1108H1152Q1153 430 1159 428Q1165 427 1172 426Q1180 424 1188 422Q1196 421 1201 420Q1206 419 1216 416Q1226 414 1232 412Q1239 410 1240 410Q1242 408 1245 403Q1248 398 1252 392Q1255 386 1258 380Q1260 374 1260 371Q1260 368 1256 356Q1252 345 1250 342Q1249 341 1242 338Q1235 334 1230 332Q1228 331 1216 327Q1203 323 1201 322Q1200 321 1196 318Q1191 315 1186 312Q1182 309 1178 306Q1173 303 1172 302H1167H1162Q1161 302 1156 304Q1152 306 1148 308Q1143 309 1138 310Q1134 312 1133 312Q1132 312 1126 312Q1121 313 1114 313Q1107 313 1100 313Q1094 313 1090 313Q1082 313 1068 313Q1055 313 1054 312Q1052 312 1044 308Q1035 303 1025 298Q1015 293 1006 288Q998 284 996 283L966 273Q965 273 962 269Q958 265 957 263Q952 258 944 246Q937 235 937 234Q937 234 937 229Q937 224 936 218Q936 211 936 204Q936 197 936 193ZM996 166Q996 168 996 174Q997 179 998 185Q1000 191 1002 196Q1004 202 1005 205Q1006 207 1010 212Q1015 216 1020 220Q1024 225 1028 229Q1033 233 1035 234Q1036 235 1041 236Q1046 238 1052 240Q1059 241 1065 242Q1071 244 1074 244Q1078 244 1095 246Q1112 247 1132 248Q1152 250 1172 252Q1191 253 1201 254H1224H1240Q1244 252 1251 244Q1258 237 1260 234Q1260 233 1260 226Q1261 219 1261 215Q1261 211 1260 204Q1260 196 1260 195Q1259 193 1256 186Q1254 180 1251 172Q1248 164 1245 156Q1242 149 1240 146Q1240 145 1236 142Q1232 138 1230 136Q1226 133 1220 128Q1213 123 1207 118Q1201 114 1196 110Q1191 107 1191 107Q1190 107 1186 108Q1181 109 1176 111Q1172 113 1168 115Q1163 117 1162 117H1152H1142Q1141 117 1136 115Q1132 113 1128 112Q1123 110 1118 108Q1114 107 1113 107Q1112 107 1106 106Q1101 106 1098 106Q1095 106 1090 106Q1084 107 1084 107Q1082 107 1074 111Q1067 115 1064 117Q1063 117 1060 122Q1056 126 1054 126Q1053 127 1049 126Q1045 126 1045 126Q1039 128 1028 132Q1017 135 1015 136Q1011 139 1004 150Q996 162 996 166Z"/><path d="M1728 115V68Q1728 66 1730 60Q1733 54 1736 46Q1739 38 1742 30Q1746 23 1748 19Q1749 17 1752 13Q1756 9 1758 9Q1759 9 1767 8Q1775 8 1779 8Q1783 8 1790 8Q1796 9 1797 9Q1798 9 1800 13Q1803 17 1806 22Q1809 26 1812 30Q1815 35 1816 38Q1818 43 1822 54Q1826 66 1826 68V322Q1826 324 1822 335Q1818 346 1816 352Q1815 354 1812 362Q1808 369 1807 371Q1803 377 1796 388Q1789 399 1787 401Q1786 402 1778 406Q1769 409 1767 410Q1765 411 1760 416Q1754 420 1748 426Q1741 431 1736 435Q1730 439 1728 440Q1727 440 1723 440Q1719 440 1714 440Q1709 440 1704 440Q1700 440 1699 440Q1697 440 1689 444Q1681 449 1679 450Q1678 450 1674 450Q1671 449 1670 450Q1668 450 1659 452Q1650 453 1640 454Q1631 456 1622 458Q1613 459 1611 459Q1609 460 1600 460Q1591 460 1586 460Q1581 460 1572 460Q1563 460 1562 459Q1560 459 1554 458Q1549 456 1542 454Q1536 453 1530 452Q1524 450 1523 450Q1522 449 1518 449Q1513 449 1513 450Q1511 450 1503 454Q1495 459 1493 459Q1492 460 1484 460Q1476 461 1471 461Q1467 461 1460 460Q1454 460 1454 459Q1454 459 1450 448Q1446 436 1444 430Q1442 422 1439 409Q1436 396 1433 384Q1430 371 1428 362Q1425 353 1425 352Q1424 345 1424 319Q1424 293 1424 264Q1425 234 1425 208Q1425 182 1425 175Q1425 173 1424 166Q1422 159 1420 151Q1418 143 1416 136Q1415 128 1415 126Q1415 125 1414 110Q1414 95 1414 87Q1414 82 1414 68Q1415 53 1415 48Q1417 46 1424 38Q1432 31 1435 29Q1437 27 1444 23Q1452 19 1454 19Q1456 19 1464 23Q1471 27 1474 29Q1476 31 1484 38Q1491 46 1493 48Q1495 53 1498 67Q1501 81 1504 96Q1508 112 1510 126Q1513 140 1513 146Q1513 152 1513 178Q1513 204 1513 234Q1513 264 1513 290Q1513 316 1513 322Q1513 326 1517 341Q1521 356 1523 361Q1524 363 1527 366Q1530 370 1532 371Q1537 373 1552 376Q1567 380 1572 381Q1573 381 1580 381Q1588 381 1596 381Q1604 381 1611 381Q1619 381 1621 381Q1625 381 1636 382Q1647 384 1660 386Q1672 387 1683 388Q1694 390 1699 391Q1701 390 1706 386Q1710 382 1714 377Q1719 372 1723 368Q1727 363 1728 361Q1729 359 1731 352Q1733 346 1734 338Q1736 330 1737 323Q1738 316 1738 313Q1738 308 1736 288Q1735 267 1734 244Q1732 221 1730 200Q1728 180 1728 175Z"/></g></g>
<g fill="#c7710f" stroke="#c7710f" stroke-width="14" stroke-linejoin="round" transform="translate(2612.6,0) scale(1.3)"><path d="M20 112Q20 107 20 90Q21 74 22 69Q22 66 24 60Q25 53 26 46Q28 40 30 35Q31 30 32 29Q34 26 40 20Q45 13 52 7Q58 1 64 -4Q69 -9 71 -10Q74 -11 87 -14Q100 -17 116 -20Q131 -23 146 -26Q161 -28 169 -29Q172 -29 185 -29Q198 -29 213 -29Q228 -29 241 -29Q254 -29 257 -29Q258 -29 262 -30Q267 -32 272 -34Q276 -36 280 -38Q285 -39 286 -39Q289 -39 297 -36Q305 -34 314 -30Q324 -27 332 -24Q341 -21 345 -19Q346 -19 351 -15Q356 -11 362 -6Q368 -2 374 2Q381 7 384 10Q387 12 394 20Q402 27 404 29Q406 31 410 39Q413 47 413 49Q414 52 416 60Q418 67 420 75Q421 83 422 90Q423 96 423 98Q423 99 423 107Q423 115 424 125Q424 135 424 145Q424 156 424 162Q424 168 424 178Q424 189 424 199Q423 209 423 216Q423 224 423 225Q423 228 422 234Q421 240 420 246Q418 252 416 257Q414 262 413 264Q413 265 409 270Q405 274 400 278Q396 283 392 288Q387 292 384 294Q382 295 374 298Q366 302 364 303Q362 305 354 313Q347 321 345 323Q343 325 336 328Q328 332 325 333Q320 335 306 338Q291 342 286 343Q281 343 269 344Q257 346 243 348Q229 349 216 350Q204 352 198 352Q196 352 190 352Q185 352 178 352Q172 352 166 352Q160 352 159 352Q157 352 152 354Q146 355 140 356Q134 358 128 360Q123 361 120 362Q116 364 108 368Q101 371 100 372Q99 373 96 378Q94 384 90 391Q87 398 84 404Q82 409 81 411Q80 412 76 416Q71 420 71 421Q71 421 72 425Q73 429 74 434Q76 438 78 442Q80 447 81 450Q82 452 86 460Q90 468 90 470Q91 471 92 476Q93 480 94 485Q96 490 98 494Q99 498 100 499Q103 502 112 508Q120 515 130 521Q139 527 148 532Q156 537 159 538Q160 539 170 539Q180 539 185 539Q191 539 203 539Q216 539 218 538Q219 538 224 536Q228 535 232 534Q237 532 242 530Q246 529 247 529Q248 529 254 529Q260 529 266 529Q273 529 278 529Q284 529 286 529Q290 528 302 524Q313 521 316 519Q318 517 326 509Q333 501 335 499Q338 496 344 491Q351 486 357 482Q363 477 368 474Q373 470 374 470Q375 470 380 470Q385 469 388 469Q391 469 397 470Q403 470 404 470Q406 470 410 474Q413 478 413 480Q414 481 414 491Q415 501 415 506Q415 511 414 520Q414 528 413 529Q413 530 406 538Q398 545 394 548L364 568Q362 569 354 578Q347 586 345 587Q343 589 336 592Q329 595 325 597Q321 599 310 602Q299 606 296 607H292H286Q283 607 268 606Q254 604 238 602Q221 600 206 598Q192 597 188 597Q186 597 177 597Q169 597 159 597Q149 597 140 597Q132 597 130 597Q129 597 126 596Q122 595 117 594Q112 592 108 590Q103 588 100 587Q96 585 88 582Q81 578 81 577Q80 576 81 568Q82 560 81 558Q80 556 72 552Q63 549 61 548Q59 547 56 544Q52 540 51 538Q49 534 46 522Q42 511 42 509Q42 508 42 502Q41 495 41 487Q41 479 41 470Q41 461 41 456Q41 451 41 442Q41 433 41 424Q41 416 42 409Q42 402 42 401Q42 396 43 388Q44 379 46 370Q47 360 48 352Q50 345 51 343Q52 340 56 334Q60 329 65 322Q70 316 74 310Q79 305 81 303Q82 303 86 302Q90 300 95 298Q100 297 104 296Q109 294 110 294L130 284Q133 283 140 282Q146 280 154 278Q162 277 169 276Q176 274 179 274Q180 274 185 274Q191 274 198 274Q205 274 210 274Q216 274 218 274Q220 274 228 269Q235 264 237 264Q238 264 242 266Q247 267 252 269Q257 271 262 272Q266 274 267 274Q271 274 278 272Q286 269 294 266Q301 263 308 260Q314 256 316 255Q317 253 320 246Q324 240 327 232Q330 225 332 218Q335 210 335 206Q335 204 336 190Q336 176 336 168Q336 160 336 144Q335 129 335 127Q335 125 331 118Q327 110 325 108Q323 106 316 98Q309 90 306 88Q302 85 296 80Q289 75 283 70Q277 66 272 62Q267 59 267 59H159Q157 61 150 64Q142 68 139 69Q138 69 134 69Q130 69 125 69Q120 69 115 69Q111 69 110 69Q109 69 104 72Q99 74 93 77Q87 80 80 83Q74 86 71 88Q70 89 66 92Q61 95 56 98Q52 101 48 104Q43 107 42 108Q40 109 31 110Q22 112 20 112Z"/><path d="M471 190Q471 182 472 170Q472 157 472 156Q472 154 476 146Q480 139 484 130Q489 120 494 111Q498 102 501 98Q503 95 510 88Q518 80 521 78Q524 76 532 72Q541 67 550 62Q560 58 568 54Q576 50 579 49Q582 48 588 46Q595 44 603 42Q611 41 618 40Q625 39 628 39Q629 39 636 39Q643 39 652 38Q662 38 671 38Q681 38 687 38Q693 38 702 38Q712 38 721 38Q730 39 737 39Q745 39 746 39Q749 39 758 40Q766 42 776 44Q785 45 793 46Q801 48 804 49Q806 50 812 52Q818 55 824 58Q830 61 836 64Q841 66 843 68Q848 71 859 82Q870 94 873 98Q873 99 874 103Q876 107 878 112Q879 117 880 122Q882 126 882 127Q883 129 888 136Q892 144 892 146Q892 147 892 151Q893 155 893 157Q893 159 892 162Q892 166 892 166Q890 168 885 172Q880 176 874 180Q868 185 862 189Q856 193 853 195Q853 196 849 196Q846 196 844 196Q842 196 838 196Q834 196 834 195Q831 194 826 192Q820 189 814 186Q807 183 802 180Q796 177 794 176Q793 175 789 170Q785 166 780 161Q775 156 770 152Q766 147 765 146Q765 146 760 145Q755 144 749 142Q743 141 736 140Q730 138 726 137Q726 137 724 136Q722 136 721 136Q720 136 718 136Q717 137 716 137Q715 137 710 138Q706 140 702 142Q697 143 692 144Q688 146 687 146Q687 147 685 147Q683 147 682 147Q678 147 677 146Q676 146 672 144Q667 143 662 142Q658 140 654 138Q649 137 648 137Q645 137 638 138Q631 139 623 140Q615 142 608 144Q602 145 599 146Q598 147 596 150Q593 153 590 156Q586 160 583 163Q580 166 579 166Q579 167 575 166Q571 166 570 166Q568 168 564 171Q560 174 560 176V352Q560 352 561 356Q562 360 564 364Q565 369 567 374Q569 378 570 381Q572 385 576 392Q579 400 579 401Q582 403 593 406Q604 410 609 410Q610 410 617 410Q624 411 633 411Q642 411 651 411Q661 411 667 411Q673 411 682 411Q692 411 701 411Q711 411 718 410Q725 410 726 410Q730 410 738 409Q745 408 752 406Q760 405 766 404Q773 402 775 401Q776 400 780 396Q785 392 790 386Q795 381 799 376Q803 372 804 371Q806 369 810 366Q815 363 820 360Q825 357 829 354Q833 352 834 352Q834 351 840 351Q846 351 849 351Q851 351 856 351Q862 351 863 352Q866 354 874 361Q881 368 882 371Q883 372 883 378Q883 385 883 389Q883 394 883 401Q883 409 882 410Q882 413 878 420Q875 428 873 430Q871 432 864 438Q857 443 850 450Q842 456 834 462Q827 467 824 469Q823 470 819 470Q815 469 814 469Q812 470 806 473Q801 476 794 479Q788 482 782 485Q776 488 775 489Q772 490 760 494Q749 497 746 498Q745 498 744 498Q742 499 740 499Q739 499 738 498Q736 498 736 498Q735 498 731 494Q727 489 726 489Q726 488 722 488Q721 488 719 488Q717 488 716 489Q713 489 698 490Q684 492 668 494Q651 495 636 496Q622 498 619 498H613H609Q607 497 599 494Q591 490 589 489Q587 488 581 483Q575 478 567 472Q559 465 552 458Q544 452 540 449Q539 449 536 444Q532 440 531 440Q529 438 521 434Q513 431 511 430Q508 428 500 420Q493 412 492 410Q490 407 486 396Q482 385 482 381Q481 375 480 356Q478 336 476 312Q475 289 474 267Q472 245 472 234Q472 233 472 227Q472 222 472 215Q471 208 471 201Q471 194 471 190Z"/><path d="M936 193Q936 188 936 180Q936 173 936 166Q937 158 937 152Q937 147 937 146Q937 144 942 136Q946 128 947 126Q947 125 946 116Q946 108 947 107Q948 105 953 101Q958 97 964 92Q970 88 976 84Q983 79 986 78Q988 76 1000 72Q1013 69 1015 68Q1017 67 1025 64Q1033 60 1035 58H1211Q1213 59 1218 62Q1224 66 1230 69Q1236 72 1242 74Q1247 77 1250 78Q1251 78 1260 78Q1269 79 1274 79Q1279 79 1288 78Q1298 78 1299 78Q1300 77 1304 72Q1307 68 1309 68Q1309 68 1318 68Q1328 67 1333 67Q1338 67 1348 68Q1357 68 1357 68Q1359 68 1363 72Q1367 76 1367 78Q1367 81 1366 88Q1365 94 1364 102Q1362 110 1360 116Q1358 123 1357 126Q1357 127 1354 132Q1351 136 1348 141Q1344 146 1341 150Q1338 154 1338 156Q1337 159 1336 168Q1334 177 1332 188Q1331 199 1330 209Q1328 219 1328 224Q1328 229 1328 249Q1328 270 1328 293Q1328 316 1328 336Q1328 356 1328 361Q1328 362 1326 370Q1323 377 1320 386Q1317 395 1314 404Q1311 414 1309 420Q1307 423 1304 430Q1300 438 1299 439Q1296 443 1284 454Q1273 466 1269 469Q1267 471 1260 474Q1252 478 1250 478Q1245 479 1235 481Q1225 483 1214 484Q1203 486 1194 487Q1184 488 1181 488Q1179 488 1174 486Q1168 485 1162 484Q1155 482 1149 480Q1143 478 1142 478Q1140 478 1131 478Q1123 478 1113 478Q1103 478 1094 478Q1086 478 1084 478Q1082 478 1074 474Q1066 469 1064 469Q1049 464 1034 462Q1019 459 1005 449L986 430Q985 428 982 422Q979 417 976 411Q973 405 970 399Q967 393 966 390V385V381Q968 377 976 370Q984 363 986 361Q986 361 990 360Q994 360 996 360Q998 360 1002 360Q1005 361 1005 361Q1007 362 1014 370Q1022 377 1025 381Q1026 382 1030 390Q1033 399 1035 400Q1038 404 1049 416Q1060 427 1064 430H1108H1152Q1153 430 1159 428Q1165 427 1172 426Q1180 424 1188 422Q1196 421 1201 420Q1206 419 1216 416Q1226 414 1232 412Q1239 410 1240 410Q1242 408 1245 403Q1248 398 1252 392Q1255 386 1258 380Q1260 374 1260 371Q1260 368 1256 356Q1252 345 1250 342Q1249 341 1242 338Q1235 334 1230 332Q1228 331 1216 327Q1203 323 1201 322Q1200 321 1196 318Q1191 315 1186 312Q1182 309 1178 306Q1173 303 1172 302H1167H1162Q1161 302 1156 304Q1152 306 1148 308Q1143 309 1138 310Q1134 312 1133 312Q1132 312 1126 312Q1121 313 1114 313Q1107 313 1100 313Q1094 313 1090 313Q1082 313 1068 313Q1055 313 1054 312Q1052 312 1044 308Q1035 303 1025 298Q1015 293 1006 288Q998 284 996 283L966 273Q965 273 962 269Q958 265 957 263Q952 258 944 246Q937 235 937 234Q937 234 937 229Q937 224 936 218Q936 211 936 204Q936 197 936 193ZM996 166Q996 168 996 174Q997 179 998 185Q1000 191 1002 196Q1004 202 1005 205Q1006 207 1010 212Q1015 216 1020 220Q1024 225 1028 229Q1033 233 1035 234Q1036 235 1041 236Q1046 238 1052 240Q1059 241 1065 242Q1071 244 1074 244Q1078 244 1095 246Q1112 247 1132 248Q1152 250 1172 252Q1191 253 1201 254H1224H1240Q1244 252 1251 244Q1258 237 1260 234Q1260 233 1260 226Q1261 219 1261 215Q1261 211 1260 204Q1260 196 1260 195Q1259 193 1256 186Q1254 180 1251 172Q1248 164 1245 156Q1242 149 1240 146Q1240 145 1236 142Q1232 138 1230 136Q1226 133 1220 128Q1213 123 1207 118Q1201 114 1196 110Q1191 107 1191 107Q1190 107 1186 108Q1181 109 1176 111Q1172 113 1168 115Q1163 117 1162 117H1152H1142Q1141 117 1136 115Q1132 113 1128 112Q1123 110 1118 108Q1114 107 1113 107Q1112 107 1106 106Q1101 106 1098 106Q1095 106 1090 106Q1084 107 1084 107Q1082 107 1074 111Q1067 115 1064 117Q1063 117 1060 122Q1056 126 1054 126Q1053 127 1049 126Q1045 126 1045 126Q1039 128 1028 132Q1017 135 1015 136Q1011 139 1004 150Q996 162 996 166Z"/><path d="M1728 115V68Q1728 66 1730 60Q1733 54 1736 46Q1739 38 1742 30Q1746 23 1748 19Q1749 17 1752 13Q1756 9 1758 9Q1759 9 1767 8Q1775 8 1779 8Q1783 8 1790 8Q1796 9 1797 9Q1798 9 1800 13Q1803 17 1806 22Q1809 26 1812 30Q1815 35 1816 38Q1818 43 1822 54Q1826 66 1826 68V322Q1826 324 1822 335Q1818 346 1816 352Q1815 354 1812 362Q1808 369 1807 371Q1803 377 1796 388Q1789 399 1787 401Q1786 402 1778 406Q1769 409 1767 410Q1765 411 1760 416Q1754 420 1748 426Q1741 431 1736 435Q1730 439 1728 440Q1727 440 1723 440Q1719 440 1714 440Q1709 440 1704 440Q1700 440 1699 440Q1697 440 1689 444Q1681 449 1679 450Q1678 450 1674 450Q1671 449 1670 450Q1668 450 1659 452Q1650 453 1640 454Q1631 456 1622 458Q1613 459 1611 459Q1609 460 1600 460Q1591 460 1586 460Q1581 460 1572 460Q1563 460 1562 459Q1560 459 1554 458Q1549 456 1542 454Q1536 453 1530 452Q1524 450 1523 450Q1522 449 1518 449Q1513 449 1513 450Q1511 450 1503 454Q1495 459 1493 459Q1492 460 1484 460Q1476 461 1471 461Q1467 461 1460 460Q1454 460 1454 459Q1454 459 1450 448Q1446 436 1444 430Q1442 422 1439 409Q1436 396 1433 384Q1430 371 1428 362Q1425 353 1425 352Q1424 345 1424 319Q1424 293 1424 264Q1425 234 1425 208Q1425 182 1425 175Q1425 173 1424 166Q1422 159 1420 151Q1418 143 1416 136Q1415 128 1415 126Q1415 125 1414 110Q1414 95 1414 87Q1414 82 1414 68Q1415 53 1415 48Q1417 46 1424 38Q1432 31 1435 29Q1437 27 1444 23Q1452 19 1454 19Q1456 19 1464 23Q1471 27 1474 29Q1476 31 1484 38Q1491 46 1493 48Q1495 53 1498 67Q1501 81 1504 96Q1508 112 1510 126Q1513 140 1513 146Q1513 152 1513 178Q1513 204 1513 234Q1513 264 1513 290Q1513 316 1513 322Q1513 326 1517 341Q1521 356 1523 361Q1524 363 1527 366Q1530 370 1532 371Q1537 373 1552 376Q1567 380 1572 381Q1573 381 1580 381Q1588 381 1596 381Q1604 381 1611 381Q1619 381 1621 381Q1625 381 1636 382Q1647 384 1660 386Q1672 387 1683 388Q1694 390 1699 391Q1701 390 1706 386Q1710 382 1714 377Q1719 372 1723 368Q1727 363 1728 361Q1729 359 1731 352Q1733 346 1734 338Q1736 330 1737 323Q1738 316 1738 313Q1738 308 1736 288Q1735 267 1734 244Q1732 221 1730 200Q1728 180 1728 175Z"/></g>
</g>
</svg>
